<svg width="106" height="24" viewBox="0 0 106 24" fill="none" xmlns="http://www.w3.org/2000/svg">
<rect width="106" height="24" rx="8" fill="#BFFB4F"/>
<path d="M28.415 12.9249C27.96 12.5449 27.2225 12.2829 26.109 12.1009C25.1365 11.9424 24.791 11.7129 24.791 11.2294C24.791 10.7859 25.191 10.5089 25.8345 10.5089C26.5165 10.5089 26.8695 10.8099 26.9795 11.4989L26.987 11.5624H28.9635L28.956 11.4754C28.744 9.8514 27.654 8.9959 25.795 8.9959C24.007 8.9959 22.815 9.9309 22.815 11.3324C22.815 12.0614 23.0345 12.5999 23.4895 12.9959C23.9445 13.3604 24.697 13.6374 25.7325 13.8199C26.909 14.0334 27.105 14.2714 27.105 14.7304C27.105 15.1979 26.658 15.4989 25.9755 15.4989C25.1755 15.4989 24.6735 15.1189 24.564 14.4374L24.556 14.3739H22.501L22.517 14.4614C22.642 15.2454 23.027 15.8949 23.6225 16.3384C24.219 16.7819 25.0345 17.0119 25.9675 17.0119C26.846 17.0119 27.646 16.7739 28.2185 16.3384C28.791 15.9029 29.105 15.2769 29.105 14.5884C29.097 13.8354 28.8775 13.3134 28.415 12.9249ZM40.1475 9.0829C39.4495 9.0829 38.877 9.3604 38.414 9.9304C38.273 10.0809 38.234 10.1129 38.163 10.1129C38.077 10.1129 38.038 9.9779 38.022 9.9069C37.983 9.6929 37.9435 9.4634 37.936 9.3129L37.928 9.2414H36.4145V16.7584H38.4455V12.7979C38.4455 12.2514 38.524 11.8079 38.6655 11.4829C38.861 11.0474 39.183 10.8254 39.5985 10.8254C40.061 10.8254 40.32 11.1504 40.32 11.7204V11.9904H42.14L42.1475 11.9264C42.163 11.8314 42.163 11.7129 42.163 11.6099C42.171 10.7464 41.9515 10.0649 41.52 9.6299C41.1825 9.2649 40.72 9.0829 40.1475 9.0829ZM46.853 9.0039C45.7705 9.0039 44.783 9.3999 44.061 10.1289C43.3315 10.8654 42.9315 11.8869 42.9315 13.0039C42.9315 14.1364 43.3315 15.1664 44.053 15.8869C44.767 16.5999 45.7785 16.9959 46.8925 16.9959C48.798 16.9959 50.202 15.9979 50.5705 14.3979L50.594 14.3029H48.563L48.547 14.3579C48.351 14.9999 47.747 15.3719 46.892 15.3719C45.8415 15.3719 45.12 14.7224 45.01 13.6769H50.6255L50.641 13.6219C50.6805 13.4474 50.704 13.0594 50.704 12.8059C50.704 11.7129 50.351 10.7704 49.684 10.0889C48.9865 9.3839 48.014 9.0039 46.853 9.0039ZM45.018 12.2514C45.151 11.2534 45.873 10.6114 46.8925 10.6114C47.896 10.6114 48.61 11.2694 48.6885 12.2514H45.018ZM58.327 9.3129C58.327 9.5189 58.288 9.8119 58.2565 10.0179C58.2095 10.2239 58.1465 10.2239 58.1155 10.2239C58.0995 10.2239 58.0215 10.2159 57.841 10.0259C57.237 9.3444 56.445 9.0119 55.4255 9.0119C54.4135 9.0119 53.4805 9.4159 52.7905 10.1519C52.1 10.8889 51.7235 11.8949 51.7235 12.9879C51.7235 14.0809 52.1 15.0869 52.79 15.8239C53.4805 16.5604 54.4135 16.9564 55.4255 16.9564C56.445 16.9564 57.237 16.6234 57.841 15.9424C58.0215 15.7604 58.0995 15.7444 58.1155 15.7444C58.1465 15.7444 58.2095 15.7444 58.2565 15.9504C58.288 16.1089 58.335 16.4179 58.335 16.6554V16.7344H59.88V9.2414H58.335V9.3129H58.327ZM57.896 12.9959C57.896 14.3189 57.0725 15.2059 55.849 15.2059C55.229 15.2059 54.7275 14.9999 54.3585 14.6039C53.982 14.1999 53.794 13.6689 53.794 13.0039C53.794 11.6809 54.6175 10.7939 55.849 10.7939C57.08 10.7859 57.896 11.6729 57.896 12.9959ZM70.4835 9.0039C69.519 9.0039 68.8445 9.3684 68.225 10.2159C68.0915 10.3899 68.013 10.4294 67.966 10.4294C67.911 10.4294 67.856 10.4139 67.7385 10.1999C67.2915 9.3839 66.617 9.0039 65.6055 9.0039C64.7035 9.0039 64.0055 9.3604 63.4015 10.1364C63.2605 10.2869 63.2445 10.2869 63.182 10.2869C63.072 10.2869 63.033 10.1284 63.017 10.0334C62.978 9.7959 62.9385 9.5504 62.931 9.3129V9.2414H61.4095V16.7584H63.4405V13.2734C63.4405 12.5284 63.574 11.9424 63.8485 11.5304C64.1545 11.0714 64.5545 10.8494 65.072 10.8494C65.6055 10.8494 66.2405 11.1109 66.2405 12.3779V16.7664H68.256V13.2814C68.256 12.5364 68.3895 11.9664 68.664 11.5384C68.97 11.0789 69.37 10.8574 69.8875 10.8574C70.4205 10.8574 71.056 11.1189 71.056 12.3859V16.7744H73.103V12.0849C73.095 10.1524 72.115 9.0039 70.4835 9.0039ZM76.648 6.3899H74.6165V16.7504H76.648V6.3899ZM80.2005 9.2414H78.1695V16.7584H80.2005V9.2414ZM86.083 9.0039C85.071 9.0039 84.318 9.3524 83.738 10.1129C83.6435 10.2314 83.5655 10.2869 83.5025 10.2869C83.432 10.2869 83.377 10.2079 83.3455 10.0419C83.3001 9.79796 83.2663 9.55202 83.244 9.3049L83.236 9.2334H81.7145V16.7504H83.7455V13.3129C83.7455 12.5209 83.9025 11.9264 84.224 11.4829C84.5455 11.0474 84.977 10.8334 85.5495 10.8334C86.373 10.8334 86.836 11.3959 86.836 12.4099V16.7424H88.867V12.0849C88.867 11.1109 88.624 10.3504 88.1375 9.8119C87.6595 9.2889 86.9455 9.0039 86.083 9.0039ZM96.6395 10.0889C95.949 9.3839 94.969 9.0119 93.816 9.0119C92.7335 9.0119 91.7455 9.4079 91.024 10.1369C90.2945 10.8734 89.8945 11.8949 89.8945 13.0119C89.8945 14.1444 90.2945 15.1744 91.016 15.8949C91.7295 16.6079 92.7415 17.0039 93.855 17.0039C95.761 17.0039 97.1645 16.0059 97.5335 14.4059L97.557 14.3109H95.5255L95.51 14.3659C95.314 15.0079 94.71 15.3799 93.855 15.3799C92.804 15.3799 92.0825 14.7304 91.973 13.6849H97.5885L97.604 13.6299C97.643 13.4549 97.6665 13.0674 97.6665 12.8139C97.659 11.7129 97.306 10.7704 96.6395 10.0889ZM91.9805 12.2514C92.106 11.2534 92.8355 10.6114 93.855 10.6114C94.859 10.6114 95.5725 11.2694 95.651 12.2514H91.9805ZM34.0695 15.1899C33.285 15.1899 32.9795 14.8414 32.9795 13.9624V10.9524H34.893V9.2414H32.979V7.1739H31.5675L31.5595 7.2454C31.536 7.4829 31.442 8.2754 31.3165 8.6954C31.23 9.0274 31.0655 9.2414 30.501 9.2414H29.599V10.9444H30.979V14.1364C30.979 16.0059 31.795 16.8374 33.63 16.8374C34.085 16.8374 34.626 16.7584 34.9475 16.6554L35.0025 16.6394V15.0314L34.9085 15.0634C34.6364 15.1458 34.3538 15.1884 34.0695 15.1899ZM79.189 8.3859C79.8515 8.3859 80.389 7.8434 80.389 7.1739C80.389 6.5049 79.8515 5.9624 79.189 5.9624C78.5265 5.9624 77.989 6.5049 77.989 7.1739C77.989 7.8439 78.5265 8.3859 79.189 8.3859Z" fill="#131313"/>
<path d="M17.0882 7.18455C17.0882 8.38772 16.1135 9.36911 14.9062 9.36911H12.7243L14.2638 10.9105H16.4458C17.0051 10.9105 17.5645 11.1212 17.9854 11.5481C18.8382 12.402 18.8382 13.7826 17.9854 14.6364L14.2694 18.3624C13.8762 18.756 13.3279 19 12.7298 19C11.5281 19 10.5479 18.0242 10.5479 16.8154C10.5479 15.6123 11.5225 14.6309 12.7298 14.6309H14.9118L13.3612 13.095H11.1792C10.6199 13.095 10.0605 12.8844 9.63964 12.4574C8.78679 11.6036 8.78679 10.223 9.63964 9.36911L13.3612 5.64317C13.7599 5.24396 14.3026 5 14.9062 5C16.108 5 17.0882 5.97584 17.0882 7.18455Z" fill="#131313"/>
</svg>
