<svg width="227" height="48" viewBox="0 0 227 48" fill="none" xmlns="http://www.w3.org/2000/svg">
<path d="M46.064 17.464V21.144H53.264V25.912H46.064V29.976H54.224V35H39.792V12.44H54.224V17.464H46.064ZM66.2513 12.44C68.6193 12.44 70.6886 12.92 72.4593 13.88C74.2513 14.8187 75.6273 16.1413 76.5873 17.848C77.5473 19.5547 78.0273 21.5067 78.0273 23.704C78.0273 25.88 77.5366 27.8213 76.5553 29.528C75.5953 31.2347 74.2193 32.5787 72.4272 33.56C70.6566 34.52 68.5979 35 66.2513 35H57.3233V12.44H66.2513ZM65.7713 29.464C67.6059 29.464 69.0459 28.9627 70.0913 27.96C71.1366 26.9573 71.6593 25.5387 71.6593 23.704C71.6593 21.848 71.1366 20.4187 70.0913 19.416C69.0459 18.392 67.6059 17.88 65.7713 17.88H63.5953V29.464H65.7713ZM86.9985 12.44V25.528C86.9985 26.744 87.2758 27.6827 87.8305 28.344C88.4065 29.0053 89.2705 29.336 90.4225 29.336C91.5745 29.336 92.4385 29.0053 93.0145 28.344C93.6118 27.6613 93.9105 26.7227 93.9105 25.528V12.44H100.183V25.528C100.183 27.5973 99.7452 29.368 98.8705 30.84C97.9958 32.2907 96.8012 33.3893 95.2865 34.136C93.7932 34.8613 92.1292 35.224 90.2945 35.224C88.4598 35.224 86.8172 34.8613 85.3665 34.136C83.9372 33.3893 82.8065 32.2907 81.9745 30.84C81.1638 29.3893 80.7585 27.6187 80.7585 25.528V12.44H86.9985ZM123.828 12.44V35H117.556V25.944H109.908V35H103.636V12.44H109.908V20.92H117.556V12.44H123.828ZM133.689 17.464V21.144H140.889V25.912H133.689V29.976H141.849V35H127.417V12.44H141.849V17.464H133.689ZM159.22 31.32H151.22L150.004 35H143.412L151.636 12.44H158.868L167.06 35H160.436L159.22 31.32ZM157.652 26.52L155.22 19.224L152.82 26.52H157.652ZM175.377 30.2H182.385V35H169.105V12.44H175.377V30.2ZM201.815 12.44V17.432H195.799V35H189.527V17.432H183.575V12.44H201.815ZM224.328 12.44V35H218.056V25.944H210.408V35H204.136V12.44H210.408V20.92H218.056V12.44H224.328Z" fill="#1CBCCF"/>
<path d="M12.0001 13.3333C13.4729 13.3333 14.6667 14.5272 14.6667 16V25.1028C13.4745 24.1831 11.9548 23.6407 10.2193 23.3515L9.78088 25.9819C11.6217 26.2887 12.7967 26.8704 13.5203 27.6544C14.2267 28.4196 14.6667 29.556 14.6667 31.3333C14.6667 33.1743 13.1744 34.6667 11.3334 34.6667C9.49247 34.6667 8.00008 33.1743 8.00008 31.3333V30.8657C8.57351 31.0568 9.16853 31.2132 9.78088 31.3152L10.2193 28.6848C9.22873 28.5197 8.23368 28.1525 7.23887 27.6799C6.10884 27.1431 5.33341 25.9987 5.33341 24.6667C5.33341 23.5537 5.61023 22.678 6.0784 22.0343C6.53929 21.4005 7.25595 20.8937 8.32347 20.6269L9.33341 20.3744V16C9.33341 14.5272 10.5273 13.3333 12.0001 13.3333ZM16.0001 12.4722C15.0229 11.365 13.593 10.6667 12.0001 10.6667C9.05456 10.6667 6.66675 13.0545 6.66675 16V18.3656C5.53201 18.8219 4.60199 19.5305 3.92176 20.4658C3.0566 21.6553 2.66675 23.1129 2.66675 24.6667C2.66675 26.7536 3.72761 28.5823 5.33341 29.6563V31.3333C5.33341 34.6471 8.01971 37.3333 11.3334 37.3333C13.2183 37.3333 14.9001 36.4643 16.0001 35.1049C17.1001 36.4643 18.7819 37.3333 20.6667 37.3333C23.9805 37.3333 26.6667 34.6471 26.6667 31.3333V29.6563C28.2726 28.5823 29.3334 26.7536 29.3334 24.6667C29.3334 23.1129 28.9435 21.6553 28.0783 20.4658C27.3982 19.5305 26.4682 18.8219 25.3334 18.3656V16C25.3334 13.0545 22.9455 10.6667 20.0001 10.6667C18.4071 10.6667 16.9773 11.365 16.0001 12.4722ZM24.0001 30.8657V31.3333C24.0001 33.1743 22.5077 34.6667 20.6667 34.6667C18.8258 34.6667 17.3334 33.1743 17.3334 31.3333C17.3334 29.556 17.7734 28.4196 18.4798 27.6544C19.2035 26.8704 20.3785 26.2887 22.2193 25.9819L21.7809 23.3515C20.0454 23.6407 18.5257 24.1831 17.3334 25.1028V16C17.3334 14.5272 18.5273 13.3333 20.0001 13.3333C21.4729 13.3333 22.6667 14.5272 22.6667 16V20.3744L23.6767 20.6269C24.7442 20.8937 25.4609 21.4005 25.9218 22.0343C26.3899 22.678 26.6667 23.5537 26.6667 24.6667C26.6667 25.9987 25.8913 27.1431 24.7613 27.6799C23.7665 28.1525 22.7714 28.5197 21.7809 28.6848L22.2193 31.3152C22.8317 31.2132 23.4266 31.0568 24.0001 30.8657Z" fill="#1CBCCF"/>
</svg>
