<svg width="231" height="30" viewBox="0 0 231 30" fill="none" xmlns="http://www.w3.org/2000/svg">
<path d="M8.08 7.08V11.68H17.08V17.64H8.08V22.72H18.28V29H0.24V0.799998H18.28V7.08H8.08ZM33.3141 0.799998C36.2741 0.799998 38.8607 1.4 41.0741 2.6C43.3141 3.77333 45.0341 5.42666 46.2341 7.56C47.4341 9.69333 48.0341 12.1333 48.0341 14.88C48.0341 17.6 47.4207 20.0267 46.1941 22.16C44.9941 24.2933 43.2741 25.9733 41.0341 27.2C38.8207 28.4 36.2474 29 33.3141 29H22.1541V0.799998H33.3141ZM32.7141 22.08C35.0074 22.08 36.8074 21.4533 38.1141 20.2C39.4207 18.9467 40.0741 17.1733 40.0741 14.88C40.0741 12.56 39.4207 10.7733 38.1141 9.52C36.8074 8.24 35.0074 7.6 32.7141 7.6H29.9941V22.08H32.7141ZM59.2481 0.799998V17.16C59.2481 18.68 59.5948 19.8533 60.2881 20.68C61.0081 21.5067 62.0881 21.92 63.5281 21.92C64.9681 21.92 66.0481 21.5067 66.7681 20.68C67.5148 19.8267 67.8881 18.6533 67.8881 17.16V0.799998H75.7281V17.16C75.7281 19.7467 75.1815 21.96 74.0881 23.8C72.9948 25.6133 71.5015 26.9867 69.6081 27.92C67.7415 28.8267 65.6615 29.28 63.3681 29.28C61.0748 29.28 59.0215 28.8267 57.2081 27.92C55.4215 26.9867 54.0081 25.6133 52.9681 23.8C51.9548 21.9867 51.4481 19.7733 51.4481 17.16V0.799998H59.2481Z" fill="#1CBCCF"/>
<path d="M105.285 0.799998V29H97.4447V17.68H87.8847V29H80.0447V0.799998H87.8847V11.4H97.4447V0.799998H105.285ZM117.611 7.08V11.68H126.611V17.64H117.611V22.72H127.811V29H109.771V0.799998H127.811V7.08H117.611ZM149.525 24.4H139.525L138.005 29H129.765L140.045 0.799998H149.085L159.325 29H151.045L149.525 24.4ZM147.565 18.4L144.525 9.28L141.525 18.4H147.565ZM169.721 23H178.481V29H161.881V0.799998H169.721V23ZM202.769 0.799998V7.04H195.249V29H187.409V7.04H179.969V0.799998H202.769ZM230.91 0.799998V29H223.07V17.68H213.51V29H205.67V0.799998H213.51V11.4H223.07V0.799998H230.91Z" fill="#404040"/>
</svg>
