<svg width="218" height="30" viewBox="0 0 218 30" fill="none" xmlns="http://www.w3.org/2000/svg">
<path d="M0.109375 29V0.5625H19.7188V6.48047H7.55078V11.832H18.0195V17.2422H7.55078V23.2188H19.9922V29H0.109375ZM22.8047 29V0.5625H33.3906C37.1797 0.5625 40.2331 1.72786 42.5508 4.05859C44.8685 6.38932 46.0273 9.67708 46.0273 13.9219V15.5625C46.0273 19.7943 44.862 23.0951 42.5312 25.4648C40.2135 27.8216 37.1667 29 33.3906 29H22.8047ZM30.3242 23.6484H32.8242C34.4779 23.6484 35.793 23.0495 36.7695 21.8516C37.7461 20.6536 38.2344 18.8177 38.2344 16.3438V13.2383C38.2344 10.7383 37.7396 8.92188 36.75 7.78906C35.7734 6.64323 34.4648 6.07031 32.8242 6.07031H30.3242V23.6484ZM49.3086 18.2773V0.5625H56.9648V19.1953C56.9648 21.0312 57.2904 22.3073 57.9414 23.0234C58.5924 23.7396 59.4844 24.0977 60.6172 24.0977C61.737 24.0977 62.6159 23.7396 63.2539 23.0234C63.9049 22.3073 64.2305 21.0312 64.2305 19.1953V0.5625H71.8281V18.2773C71.8281 22.1315 70.806 24.9635 68.7617 26.7734C66.7174 28.5703 64.0156 29.4688 60.6562 29.4688C57.2188 29.4688 54.4648 28.5703 52.3945 26.7734C50.3372 24.9635 49.3086 22.1315 49.3086 18.2773Z" fill="#1CBCCF"/>
<path d="M75.8906 29V0.5625H83.5664V11.2266H91.4961V0.5625H99.1719V29H91.4961V17.3984H83.5664V29H75.8906ZM103.391 29V0.5625H123V6.48047H110.832V11.832H121.301V17.2422H110.832V23.2188H123.273V29H103.391ZM123.469 29L133.293 0.503906H141.672L151.477 29H143.645L137.746 10.5039C137.59 10.0091 137.466 9.56641 137.375 9.17578C137.284 8.77214 137.206 8.42057 137.141 8.12109H137.043C136.991 8.42057 136.913 8.77214 136.809 9.17578C136.717 9.56641 136.6 10.0026 136.457 10.4844L130.734 29H123.469ZM129.562 23.707L130.793 18.5117H143.703L145.012 23.707H129.562ZM153.078 29V0.5625H160.754V23.082H171.848V29H153.078ZM168.391 6.48047V0.5625H191.516V6.48047H183.84V29H176.086V6.48047H168.391ZM193.938 29V0.5625H201.613V11.2266H209.543V0.5625H217.219V29H209.543V17.3984H201.613V29H193.938Z" fill="black"/>
</svg>
